HIERARCHY
ROOT Hips
{
	OFFSET 0.00000 0.00000 0.00000
	CHANNELS 6 Xposition Yposition Zposition Zrotation Yrotation Xrotation 
	JOINT LHipJoint
	{
		OFFSET 0 0 0
		CHANNELS 3 Zrotation Yrotation Xrotation
		JOINT LeftHip
		{
			OFFSET 1.85590 -1.73949 0.84976
			CHANNELS 3 Zrotation Yrotation Xrotation
			JOINT LeftKnee
			{
				OFFSET 2.36836 -6.50702 0.00000
				CHANNELS 3 Zrotation Yrotation Xrotation
				JOINT LeftAnkle
				{
					OFFSET 2.53268 -6.95849 0.00000
					CHANNELS 3 Zrotation Yrotation Xrotation
					JOINT LeftToe
					{
						OFFSET 0.15935 -0.43781 1.94506
						CHANNELS 3 Zrotation Yrotation Xrotation
						End Site
						{
							OFFSET 0.00000 -0.00000 1.00661
						}
					}
				}
			}
		}
	}
	JOINT RHipJoint
	{
		OFFSET 0 0 0
		CHANNELS 3 Zrotation Yrotation Xrotation
		JOINT RightHip
		{
			OFFSET -1.68297 -1.73949 0.84976
			CHANNELS 3 Zrotation Yrotation Xrotation
			JOINT RightKnee
			{
				OFFSET -2.44709 -6.72334 0.00000
				CHANNELS 3 Zrotation Yrotation Xrotation
				JOINT RightAnkle
				{
					OFFSET -2.43843 -6.69953 0.00000
					CHANNELS 3 Zrotation Yrotation Xrotation
					JOINT RightToe
					{
						OFFSET -0.20854 -0.57295 2.02172
						CHANNELS 3 Zrotation Yrotation Xrotation
						End Site
						{
							OFFSET -0.00000 -0.00000 1.05594
						}
					}
				}
			}
		}
	}
	JOINT lowerback
	{
		OFFSET 0 0 0
		CHANNELS 3 Zrotation Yrotation Xrotation
		JOINT Chest
		{
			OFFSET -0.01560 2.23971 -0.03712
			CHANNELS 3 Zrotation Yrotation Xrotation
			JOINT Chest2
			{
				OFFSET 0.05490 2.19225 -0.19086
				CHANNELS 3 Zrotation Yrotation Xrotation
				JOINT lowerneck
				{
					OFFSET 0 0 0
					CHANNELS 3 Zrotation Yrotation Xrotation
					JOINT Neck
					{
						OFFSET -0.12403 1.43168 0.27585
						CHANNELS 3 Zrotation Yrotation Xrotation
						JOINT Head
						{
							OFFSET 0.17855 1.46173 -0.32578
							CHANNELS 3 Zrotation Yrotation Xrotation
							End Site
							{
								OFFSET 0.07217 1.51590 -0.14537
							}
						}
					}
				}
				JOINT LeftCollar
				{
					OFFSET 0 0 0
					CHANNELS 3 Zrotation Yrotation Xrotation
					JOINT LeftShoulder
					{
						OFFSET 3.27650 0.85634 0.05396
CHANNELS 3 Zrotation Xrotation Yrotation
						JOINT LeftElbow
						{
OFFSET 0 -4.967550 0.000000
CHANNELS 3 Zrotation Xrotation Yrotation
							JOINT LeftWrist
							{
OFFSET 0 -3.357510 0.000000
CHANNELS 3 Zrotation Xrotation Yrotation
								JOINT lhand
								{
									OFFSET 0 0 0
CHANNELS 3 Zrotation Xrotation Yrotation
									JOINT LFingers
									{
OFFSET 0 -0.796970 0.000000
CHANNELS 3 Zrotation Xrotation Yrotation
										End Site
										{
OFFSET 0 -0.642540 0.000000
										}
									}
								}
								JOINT LThumb
								{
OFFSET 0 0.000000 0.000000
CHANNELS 3 Zrotation Xrotation Yrotation
									End Site
									{
OFFSET 0 -0.652350 0.652350
									}
								}
							}
						}
					}
				}
				JOINT RightCollar
				{
					OFFSET 0 0 0
					CHANNELS 3 Zrotation Yrotation Xrotation
					JOINT RightShoulder
					{
						OFFSET -3.24434 1.02034 0.34688
CHANNELS 3 Zrotation Xrotation Yrotation
						JOINT RightElbow
						{
OFFSET 0 -5.218590 -0.000000
CHANNELS 3 Zrotation Xrotation Yrotation
							JOINT RightWrist
							{
OFFSET 0 -3.365040 0.000000
CHANNELS 3 Zrotation Xrotation Yrotation
								JOINT rhand
								{
									OFFSET 0 0 0
CHANNELS 3 Zrotation Xrotation Yrotation
									JOINT RFingers
									{
OFFSET 0 -0.620440 0.000000
CHANNELS 3 Zrotation Xrotation Yrotation
										End Site
										{
OFFSET 0 -0.500220 0.000000
										}
									}
								}
								JOINT RThumb
								{
OFFSET 0 0.000000 0.000000
CHANNELS 3 Zrotation Xrotation Yrotation
									End Site
									{
OFFSET 0 -0.507860 0.507860
									}
								}
							}
						}
					}
				}
			}
		}
	}
}
MOTION
Frames: 9
Frame Time: 0.008333333333333333
7.422000 15.892000 -34.852200 -2.655900 -1.733200 7.624000 0.000000 0.000000 0.000000 -14.876900 -2.963100 -36.495100 10.855500 17.863700 62.311500 0.799100 6.635400 -20.564800 0.323700 -3.656900 -10.113400 0.000000 0.000000 0.000000 26.711600 9.533000 -15.168600 -3.163900 -10.955800 32.130900 -1.385200 8.756300 -21.080700 -0.353700 3.821000 -10.573600 -0.170000 -0.034500 -2.344300 2.889000 -0.060500 -0.848300 3.059700 -0.027500 0.448000 -12.839200 -4.280600 -21.604600 12.957100 -4.849000 18.865800 6.076900 -1.686700 10.239600 0.000000 -0.000000 0.000000 4.278000 13.931700 -44.055400 14.622300 -23.617300 3.073000 5.854700 -4.599600 22.431600 0.000000 0.000000 0.000000 -7.125000 0.000000 0.000000 -14.412100 8.008500 -12.682400 0.000000 -0.000000 0.000000 -15.047100 4.475800 43.775200 -27.826400 -38.955900 -10.014300 -35.227700 -7.341700 24.249000 0.000000 0.000000 0.000000 7.125000 0.000000 -0.000000 -6.802700 58.724300 2.289200
7.422542 15.894652 -34.747094 -2.802831 -1.970713 7.701323 0.000000 0.000000 0.000000 -14.686878 -2.946527 -37.268930 10.559649 17.710682 61.340356 0.849061 6.051592 -20.627960 0.420429 -4.142171 -11.479716 0.000000 0.000000 0.000000 26.936276 9.657331 -14.558576 -3.103934 -10.861060 31.813232 -1.426362 8.594001 -21.383000 -0.413485 4.120045 -11.415652 -0.070439 0.102547 -2.252875 2.890446 0.124339 -0.953105 3.009196 0.066878 0.279614 -12.916764 -4.318267 -21.407707 13.047440 -4.917343 18.802218 6.110167 -1.719907 10.195906 0.000000 0.000000 0.000000 4.353454 14.667079 -44.112835 14.848543 -23.934064 3.164606 5.840537 -4.817646 22.159253 0.000000 0.000000 0.000000 -7.125000 0.000000 0.000000 -14.423671 8.273856 -12.615021 0.000000 0.000000 0.000000 -15.083983 4.353096 43.935691 -28.301425 -39.389823 -10.315274 -35.363422 -7.579393 23.868353 0.000000 0.000000 0.000000 7.125000 0.000000 0.000000 -7.016709 58.325332 2.292997
7.422900 15.900199 -34.641229 -2.853457 -2.208328 7.764230 0.000000 0.000000 0.000000 -14.601190 -2.960364 -37.982574 10.241785 17.541339 60.290442 0.886723 5.608280 -20.675309 0.460257 -4.345548 -12.051829 0.000000 0.000000 0.000000 27.058096 9.754105 -13.919435 -3.035898 -10.752398 31.449999 -1.470872 8.456568 -21.709468 -0.453680 4.320937 -11.981355 -0.066033 0.233393 -2.219623 2.866923 0.300718 -0.999428 2.986763 0.156082 0.203939 -12.992582 -4.363614 -21.242232 13.102216 -4.980840 18.697568 6.128958 -1.753587 10.141617 0.000000 0.000000 0.000000 4.444802 15.338844 -44.211748 15.102733 -24.288221 3.268553 5.777236 -5.079800 21.866454 0.000000 0.000000 0.000000 -7.125000 0.000000 0.000000 -14.466393 8.562827 -12.569060 0.000000 0.000000 0.000000 -15.131072 4.136510 44.100289 -28.761913 -39.806908 -10.608404 -35.467171 -7.978773 23.347868 0.000000 0.000000 0.000000 7.125000 0.000000 0.000000 -7.204823 57.757305 2.256280
7.422900 15.911348 -34.533893 -2.717735 -2.446142 7.799246 0.000000 0.000000 0.000000 -14.717385 -3.033046 -38.579760 9.881327 17.340408 59.088113 0.900584 5.436820 -20.692063 0.389986 -4.003472 -11.087194 0.000000 0.000000 0.000000 26.980893 9.797558 -13.223953 -2.952248 -10.616797 30.998598 -1.521858 8.367252 -22.082703 -0.455970 4.331906 -12.012332 -0.245750 0.352240 -2.298935 2.795085 0.460728 -0.932591 3.018644 0.235273 0.307659 -13.065023 -4.423821 -21.137548 13.088173 -5.034960 18.513452 6.119737 -1.788180 10.066826 0.000000 0.000000 0.000000 4.566904 15.887515 -44.390922 15.410999 -24.714731 3.396380 5.618854 -5.427301 21.534081 0.000000 0.000000 0.000000 -7.125000 0.000000 0.000000 -14.569389 8.897490 -12.564540 0.000000 0.000000 0.000000 -15.197909 3.738265 44.272834 -29.194269 -40.191413 -10.886356 -35.509057 -8.691010 22.556802 0.000000 0.000000 0.000000 7.125000 0.000000 0.000000 -7.342835 56.862158 2.141169
7.425816 15.918802 -34.426886 -2.693802 -2.657056 7.841201 0.000000 0.000000 0.000000 -14.683352 -3.194231 -39.150787 9.521650 17.128430 57.872273 0.929436 5.176242 -20.793377 0.305094 -3.522009 -9.738486 0.000000 0.000000 0.000000 27.008211 9.764089 -12.555452 -2.865394 -10.472859 30.522926 -1.554445 8.407549 -22.321520 -0.442490 4.267432 -11.830369 -0.297374 0.472483 -2.344447 2.757949 0.620819 -0.884934 3.014097 0.314669 0.373349 -12.955449 -4.447723 -21.183996 12.962343 -5.065054 18.480427 6.047476 -1.806346 10.061152 0.000000 0.000000 0.000000 4.704159 16.431013 -44.591863 15.658443 -25.054669 3.500386 5.620680 -5.819853 21.418467 0.000000 0.000000 0.000000 -7.125000 0.000000 0.000000 -14.569797 9.009521 -12.531601 0.000000 0.000000 0.000000 -15.296203 3.411725 44.422873 -29.689213 -40.622653 -11.207758 -35.544084 -9.019216 22.294820 0.000000 0.000000 0.000000 7.125000 0.000000 0.000000 -7.412878 56.570675 2.110825
7.430067 15.924488 -34.320015 -2.724347 -2.854287 7.887521 0.000000 0.000000 0.000000 -14.575537 -3.397653 -39.709257 9.161957 16.910627 56.648190 0.965217 4.875384 -20.934423 0.214476 -2.980508 -8.224680 0.000000 0.000000 0.000000 27.086708 9.696037 -11.899627 -2.776903 -10.324669 30.034854 -1.577610 8.504595 -22.491467 -0.422630 4.172428 -11.562237 -0.287819 0.593035 -2.374810 2.738018 0.780456 -0.846918 2.992801 0.393923 0.420971 -12.761649 -4.454022 -21.301043 12.786967 -5.083476 18.518592 5.947010 -1.816393 10.088025 0.000000 0.000000 0.000000 4.848037 16.972465 -44.801493 15.876950 -25.353394 3.593078 5.700364 -6.234919 21.408971 0.000000 0.000000 0.000000 -7.125000 0.000000 0.000000 -14.520339 9.012599 -12.485064 0.000000 0.000000 0.000000 -15.409895 3.118853 44.562480 -30.213454 -41.075463 -11.549613 -35.577018 -9.159491 22.288118 0.000000 0.000000 0.000000 7.125000 0.000000 0.000000 -7.451649 56.570786 2.121965
7.433080 15.928466 -34.212378 -2.852837 -3.002604 7.983225 0.000000 0.000000 0.000000 -14.310964 -3.639204 -40.253349 8.785468 16.663652 55.339128 0.997581 4.635521 -21.084367 0.172771 -2.665010 -7.348336 0.000000 0.000000 0.000000 27.267570 9.688684 -11.246512 -2.682284 -10.160802 29.500284 -1.564532 8.432154 -22.395221 -0.446556 4.286514 -11.884305 -0.220983 0.698381 -2.433932 2.761402 0.918347 -0.838722 2.983821 0.462627 0.455745 -12.605919 -4.432446 -21.415791 12.731341 -5.082391 18.581390 5.902352 -1.807052 10.125270 0.000000 0.000000 0.000000 4.971524 17.530418 -44.945592 16.073240 -25.619353 3.677813 5.910817 -6.714103 21.610746 0.000000 0.000000 0.000000 -7.125000 0.000000 0.000000 -14.386727 8.800459 -12.424797 0.000000 0.000000 0.000000 -15.554054 2.832464 44.705976 -30.739345 -41.516016 -11.897655 -35.659041 -8.928970 22.631882 0.000000 0.000000 0.000000 7.125000 0.000000 0.000000 -7.512519 56.985303 2.215138
7.434956 15.932072 -34.104325 -2.954930 -3.147204 8.051789 0.000000 0.000000 0.000000 -14.078868 -3.839748 -40.756653 8.405349 16.406158 54.004719 1.018462 4.477889 -21.179288 0.137496 -2.385072 -6.571433 0.000000 0.000000 0.000000 27.433538 9.702852 -10.542091 -2.586396 -9.992300 28.952812 -1.561536 8.282709 -22.371735 -0.470985 4.400928 -12.207553 -0.191019 0.789732 -2.491851 2.791281 1.037780 -0.803517 3.002266 0.521687 0.517725 -12.583988 -4.439782 -21.481661 12.747010 -5.093816 18.562024 5.902309 -1.806764 10.132226 0.000000 0.000000 0.000000 5.051184 18.064795 -45.019379 16.273904 -25.890254 3.764976 6.086059 -7.201422 21.860546 0.000000 0.000000 0.000000 -7.125000 0.000000 0.000000 -14.274941 8.544163 -12.396876 0.000000 0.000000 0.000000 -15.743767 2.410766 44.968575 -31.136335 -41.847504 -12.160778 -35.742967 -8.872750 22.892037 0.000000 0.000000 0.000000 7.125000 0.000000 0.000000 -7.584345 57.304359 2.294773
7.434836 15.935025 -33.995543 -3.010677 -3.285276 8.072702 0.000000 0.000000 0.000000 -13.903792 -3.968298 -41.188347 8.018856 16.130195 52.625808 1.019186 4.464630 -21.177600 0.113510 -2.167568 -5.969124 0.000000 0.000000 0.000000 27.573358 9.754802 -9.747589 -2.488281 -9.815657 28.382685 -1.576241 7.998067 -22.475997 -0.496297 4.515917 -12.532875 -0.225793 0.856508 -2.547659 2.832564 1.124806 -0.720890 3.068861 0.563814 0.627471 -12.796972 -4.497880 -21.461713 12.887854 -5.127204 18.398398 5.980596 -1.822373 10.086001 0.000000 0.000000 0.000000 5.053896 18.557780 -44.969719 16.482247 -26.169833 3.856402 6.199482 -7.703025 22.194667 0.000000 0.000000 0.000000 -7.125000 0.000000 0.000000 -14.201475 8.210344 -12.425744 0.000000 0.000000 0.000000 -16.013463 1.751505 45.440285 -31.307012 -41.987504 -12.274803 -35.830234 -9.122557 23.005399 0.000000 0.000000 0.000000 7.125000 0.000000 0.000000 -7.675409 57.455810 2.350641
